<?xml version="1.0" standalone="no"?><svg xmlns="http://www.w3.org/2000/svg" viewBox="0 0 1440 320"><path fill="#273036" fill-opacity="1" d="M0,288L18.5,266.7C36.9,245,74,203,111,170.7C147.7,139,185,117,222,122.7C258.5,128,295,160,332,144C369.2,128,406,64,443,42.7C480,21,517,43,554,74.7C590.8,107,628,149,665,181.3C701.5,213,738,235,775,229.3C812.3,224,849,192,886,176C923.1,160,960,160,997,160C1033.8,160,1071,160,1108,149.3C1144.6,139,1182,117,1218,128C1255.4,139,1292,181,1329,213.3C1366.2,245,1403,267,1422,277.3L1440,288L1440,320L1421.5,320C1403.1,320,1366,320,1329,320C1292.3,320,1255,320,1218,320C1181.5,320,1145,320,1108,320C1070.8,320,1034,320,997,320C960,320,923,320,886,320C849.2,320,812,320,775,320C738.5,320,702,320,665,320C627.7,320,591,320,554,320C516.9,320,480,320,443,320C406.2,320,369,320,332,320C295.4,320,258,320,222,320C184.6,320,148,320,111,320C73.8,320,37,320,18,320L0,320Z"></path></svg>